<?xml version="1.0" encoding="iso-8859-1"?>
<!-- Generator: Adobe Illustrator 19.0.0, SVG Export Plug-In . SVG Version: 6.00 Build 0)  -->
<svg xmlns="http://www.w3.org/2000/svg" xmlns:xlink="http://www.w3.org/1999/xlink" version="1.1" id="Layer_1" x="0px" y="0px" viewBox="0 0 512 512" style="enable-background:new 0 0 512 512;" xml:space="preserve">
<g>
	<path style="fill:#FFD83D;" d="M127.753,236.796l-41.382-79.5c-1.395-2.68-4.165-4.361-7.187-4.361H56.7v16.203h17.569   l39.111,75.139c1.444,2.774,4.269,4.363,7.193,4.363c1.26,0,2.538-0.295,3.734-0.917   C128.277,245.657,129.82,240.764,127.753,236.796z"/>
	<path style="fill:#FFD83D;" d="M454.218,152.935h-22.839c-3.021,0-5.791,1.681-7.187,4.361l-41.382,79.5   c-2.066,3.969-0.523,8.861,3.446,10.927c1.195,0.622,2.474,0.917,3.734,0.917c2.924,0,5.749-1.589,7.193-4.363l39.111-75.139   h17.922v-16.203H454.218z"/>
</g>
<path style="fill:#FFBC79;" d="M377.591,122.882c-5.486-10.54-19.697-19.164-31.579-19.164H164.554  c-11.882,0-26.094,8.623-31.579,19.164l-41.381,79.499l22.709,54.01h281.96l22.709-54.01L377.591,122.882z"/>
<path style="fill:#FFFFFF;" d="M126.042,243.13h258.482l13.783-35.185l-38.518-74c-2.607-5.007-11.015-10.11-16.66-10.11H167.436  c-5.646,0-14.054,5.103-16.66,10.11l-38.518,74L126.042,243.13z"/>
<g>
	<rect x="24.118" y="364.809" style="fill:#1F1A78;" width="85.239" height="43.478"/>
	<rect x="401.212" y="364.809" style="fill:#1F1A78;" width="85.239" height="43.478"/>
</g>
<path style="fill:#FFD83D;" d="M451.33,193.44l-62.566,17.283H121.801L59.236,193.44c-29.76,0-53.049,24.294-51.796,54.01  l69.911,23.808L9.438,287.462l3.878,77.343H497.25l3.878-77.343l-67.913-16.203l69.911-23.808  C504.379,217.734,481.09,193.44,451.33,193.44z"/>
<g>
	<path style="fill:#FF7945;" d="M504.607,247.451c0,0.043,0,0.086,0,0.13l-1.998,39.881H402.29c0-22.09,17.91-40.011,40.011-40.011   L504.607,247.451L504.607,247.451z"/>
	<path style="fill:#FF7945;" d="M109.757,287.462H9.438L7.44,247.58c0-0.043,0-0.086,0-0.13h62.307   C91.847,247.451,109.757,265.372,109.757,287.462z"/>
</g>
<rect x="165.424" y="307.504" style="fill:#FFEDA0;" width="179.715" height="37.861"/>
<path d="M357.078,202.624H154.922c-4.474,0-8.102,3.627-8.102,8.102s3.627,8.102,8.102,8.102h202.157  c4.474,0,8.102-3.627,8.102-8.102C365.179,206.252,361.552,202.624,357.078,202.624z"/>
<path d="M70.467,239.351H40.525c-4.474,0-8.102,3.627-8.102,8.102s3.627,8.102,8.102,8.102h29.941  c14.796,0,27.272,10.124,30.867,23.808H42.6c-4.474,0-8.102,3.627-8.102,8.102c0,4.474,3.627,8.102,8.102,8.102h67.875  c4.474,0,8.102-3.627,8.102-8.102C118.578,260.934,96.996,239.351,70.467,239.351z"/>
<path d="M441.533,255.555h29.941c4.474,0,8.102-3.627,8.102-8.102s-3.627-8.102-8.102-8.102h-29.941  c-26.529,0-48.111,21.583-48.111,48.113c0,4.474,3.627,8.102,8.102,8.102h67.875c4.474,0,8.102-3.627,8.102-8.102  c0-4.474-3.627-8.102-8.102-8.102h-58.732C414.261,265.678,426.737,255.555,441.533,255.555z"/>
<path d="M495.467,203.744c-11.356-11.868-26.777-18.405-43.424-18.405c-0.729,0-1.455,0.098-2.157,0.293l-26.036,7.193  l-38.355-73.685c-6.867-13.192-23.895-23.525-38.765-23.525H165.27c-14.871,0-31.899,10.333-38.765,23.525L88.15,192.826  l-26.036-7.193c-0.702-0.194-1.428-0.293-2.157-0.293c-16.647,0-32.069,6.536-43.424,18.405  c-11.355,11.868-17.206,27.564-16.47,44.242l5.88,117.224c0.216,4.311,3.775,7.695,8.092,7.695h2.701v35.377  c0,4.474,3.627,8.102,8.102,8.102h85.24c4.474,0,8.102-3.627,8.102-8.102v-11.072c0-4.474-3.627-8.102-8.102-8.102  s-8.102,3.627-8.102,8.102v2.971H32.936v-27.275h446.127v27.275h-69.037v-2.971c0-4.474-3.627-8.102-8.102-8.102  c-4.474,0-8.102,3.627-8.102,8.102v11.072c0,4.474,3.627,8.102,8.102,8.102h85.24c4.474,0,8.102-3.627,8.102-8.102v-35.377h2.701  c4.317,0,7.875-3.384,8.092-7.695l5.881-117.272C512.673,231.308,506.823,215.613,495.467,203.744z M495.754,247.176l-5.493,109.527  H21.738l-5.491-109.478c-0.537-12.172,3.721-23.635,11.992-32.278c8.03-8.393,18.884-13.125,30.662-13.39l31.168,8.611  c0.019,0.005,0.039,0.011,0.059,0.016l30.229,8.351c4.311,1.191,8.775-1.338,9.966-5.652c1.191-4.312-1.338-8.775-5.652-9.966  l-20.552-5.678l36.757-70.617c4.105-7.886,15.503-14.803,24.392-14.803h181.458c8.889,0,20.289,6.918,24.393,14.803l36.757,70.617  l-20.552,5.678c-4.313,1.191-6.843,5.654-5.652,9.966c1.191,4.313,5.654,6.842,9.966,5.652l61.456-16.979  c11.778,0.267,22.631,4.998,30.662,13.39C492.03,223.59,496.289,235.053,495.754,247.176z"/>
<path d="M452.042,169.138h28.225c4.474,0,8.102-3.627,8.102-8.102s-3.627-8.102-8.102-8.102h-28.225  c-4.474,0-8.102,3.627-8.102,8.102S447.568,169.138,452.042,169.138z"/>
<path d="M31.732,169.138h28.224c4.474,0,8.102-3.627,8.102-8.102s-3.627-8.102-8.102-8.102H31.732c-4.474,0-8.102,3.627-8.102,8.102  S27.258,169.138,31.732,169.138z"/>
<path d="M345.858,302.644H166.142c-4.474,0-8.102,3.627-8.102,8.102v21.653c0,4.474,3.627,8.102,8.102,8.102  s8.102-3.627,8.102-8.102v-13.551h163.512v13.551c0,4.474,3.627,8.102,8.102,8.102c4.474,0,8.102-3.627,8.102-8.102v-21.653  C353.959,306.271,350.332,302.644,345.858,302.644z"/>
<path d="M300.928,262.036c4.474,0,8.102-3.627,8.102-8.102c0-4.474-3.627-8.102-8.102-8.102H211.07  c-4.474,0-8.102,3.627-8.102,8.102c0,4.474,3.627,8.102,8.102,8.102H300.928z"/>
<g>
</g>
<g>
</g>
<g>
</g>
<g>
</g>
<g>
</g>
<g>
</g>
<g>
</g>
<g>
</g>
<g>
</g>
<g>
</g>
<g>
</g>
<g>
</g>
<g>
</g>
<g>
</g>
<g>
</g>
</svg>
